<?xml version="1.0" encoding="UTF-8"?>
<!DOCTYPE svg PUBLIC "-//W3C//DTD SVG 1.1//EN" "http://www.w3.org/Graphics/SVG/1.1/DTD/svg11.dtd">
<!-- Creator: CorelDRAW X7 -->
<svg xmlns="http://www.w3.org/2000/svg" xml:space="preserve" width="0.333331in" height="0.333331in" version="1.1" style="shape-rendering:geometricPrecision; text-rendering:geometricPrecision; image-rendering:optimizeQuality; fill-rule:evenodd; clip-rule:evenodd"
viewBox="0 0 333 333"
 xmlns:xlink="http://www.w3.org/1999/xlink">
 <defs>
  <style type="text/css">
   <![CDATA[
    .fil0 {fill:#42FF1C}
   ]]>
  </style>
 </defs>
 <g id="Layer_x0020_1">
  <metadata id="CorelCorpID_0Corel-Layer"/>
  <path class="fil0" d="M167 0c92,0 166,75 166,167 0,92 -74,166 -166,166 -92,0 -167,-74 -167,-166 0,-92 75,-167 167,-167zm-110 185l0 0c3,-3 9,-3 12,0l47 47 149 -149c3,-3 8,-3 11,0l0 0c4,4 4,9 0,12l-154 155 0 0c-4,3 -9,3 -12,0l-53 -53c-3,-3 -3,-9 0,-12z"/>
 </g>
</svg>
